<svg width="52" height="33" viewBox="0 0 52 33" fill="none" xmlns="http://www.w3.org/2000/svg">
<path d="M9.47169 31.3535C8.64621 31.0611 7.84593 30.6272 6.4654 28.6892C6.10579 28.2137 4.55099 25.7564 3.17872 23.494C2.02113 21.5856 0.976387 19.8402 1.06028 19.2942C1.0994 18.7465 1.23676 18.3038 1.8934 17.5738C2.29746 17.1246 4.64529 15.7561 5.10279 15.487C5.56028 15.2179 6.22132 14.9557 6.83193 14.9764C7.93658 14.8514 11.0299 17.356 11.6953 17.5616C12.0154 17.7352 13.0309 18.2152 13.9821 18.0257C14.6797 17.8868 15.3042 17.5014 15.9539 16.9744C16.5494 16.4915 28.0242 6.03882 29.0949 5.11956C37.9184 -2.04275 47.2731 2.68788 48.8232 3.83863C50.3958 4.92914 50.7707 5.28757 50.8274 6.61118C50.8119 8.02312 49.802 8.58934 49.2393 8.95653C48.6763 9.3238 40.8304 14.1199 37.7697 16.0288C37.1114 16.4806 36.8967 17.0609 36.8339 17.1764C36.5844 17.9202 35.8631 22.6904 35.5813 23.7788C35.4908 24.8778 34.8064 26.4202 33.594 27.3143C32.3198 28.2267 30.014 29.5106 29.5131 29.8596C29.0121 30.2085 27.8249 30.9612 27.356 30.9655C26.7637 31.0064 26.0681 30.6086 26.0594 29.6729C26.0506 28.7373 25.8073 26.1954 25.7594 25.8075C25.7115 25.4195 25.8723 23.6966 25.1747 23.8355C24.9964 23.6871 23.8639 24.6247 22.0774 25.6212C20.7736 26.4407 19.4013 27.2759 18.4357 27.8357C14.7688 30.1917 12.6862 31.1417 12.2046 31.2838C11.2783 31.5573 10.5625 31.6347 9.47169 31.3535Z" fill="white" stroke="white" stroke-width="1.5"/>
</svg>
